# xmcd CD database file
#
# Track frame offsets:
#	150
#	18268
#	42237
#	57324
#	74016
#	87412
#	99892
#	116256
#	131496
#	152120
#	170456
#	189324
#	203817
#	223421
#	231959
#	254688
#	267430
#	282727
#
# Disc length: 4031 seconds
#
# Revision: 0
# Processed by: cddbd v1.5.1PL0 Copyright (c) Steve Scherf et al.
# Submitted via: CDex 1.51
#
DISCID=110fbd12
DTITLE=Rejzek-Frybova-Stanek - V country hospode
DYEAR=1995
DGENRE=Country
TTITLE0=Vsichni jsou uz v Mexiku
TTITLE1=Montgomery
TTITLE2=Chtel byc byt medvidkem
TTITLE3=Tisic mil
TTITLE4=Bodlaky ve vlasech
TTITLE5=Jarosovsky pivovar
TTITLE6=Bon soir Mademoiselle Paris
TTITLE7=Zahrada ticha
TTITLE8=Princezna ze mlejna
TTITLE9=Poveste ho vejs
TTITLE10=Slzy tvy mamy
TTITLE11=Jdem zpatky do lesu
TTITLE12=Vyznani
TTITLE13=Lasko ma ja stunu
TTITLE14=Rekni, kde ty kytky jsou
TTITLE15=Blaznova ukolebavka
TTITLE16=Stin katedral
TTITLE17=Az me andele
EXTD=YEAR: 1995
EXTT0=
EXTT1=
EXTT2=
EXTT3=
EXTT4=
EXTT5=
EXTT6=
EXTT7=
EXTT8=
EXTT9=
EXTT10=
EXTT11=
EXTT12=
EXTT13=
EXTT14=
EXTT15=
EXTT16=
EXTT17=
PLAYORDER=
